# xmcd
#
# Track frame offsets: 
#        150
#        13292
#        25505
#        38092
#        50915
#        63620
#        75847
#        88475
#        101285
#        113747
#        126197
#        138582
#        151192
#        163562
#        175235
#        188302
#        200860
#        213792
#        226725
#        239190
#        251560
#        263892
#
# Disc length: 3672 seconds
#
# Revision: 6
# Processed by: cddbd v1.5.2PL0 Copyright (c) Steve Scherf et al.
# Submitted via: ExactAudioCopyFreeDBPlugin 1.0
#
DISCID=2a0e5616
DTITLE=Hank Williams - The Complete Hank Williams [CD 01)
DYEAR=1998
DGENRE=Country
TTITLE0=Calling You
TTITLE1=Never Again (Will I Knock on Your Door)
TTITLE2=Wealth Won't Save Your Soul
TTITLE3=When God Comes and Gathers His Jewels
TTITLE4=I Don't Care (If Tomorrow Never Comes)
TTITLE5=My Love for You (Has Turned to Hate)
TTITLE6=Honky Tonkin
TTITLE7=Pan American
TTITLE8=Move It on Over
TTITLE9=I Saw the Light
TTITLE10=(Last Night) I Heard You Crying in Your Sleep
TTITLE11=Six More Miles (To the Graveyard)
TTITLE12=Fly Trouble
TTITLE13=I'm Satisfied with You
TTITLE14=On the Banks of the Old Pontchartrain
TTITLE15=Rootie Tootie
TTITLE16=I Can't Get You Off of My Mind
TTITLE17=I'm a Long Gone Daddy
TTITLE18=Honky Tonkin
TTITLE19=My Sweet Love Ain't Around
TTITLE20=The Blues Come Around
TTITLE21=A Mansion on the Hill
EXTD=YEAR: 1998 ID3G:   2
EXTT0=
EXTT1=
EXTT2=
EXTT3=
EXTT4=
EXTT5=
EXTT6=
EXTT7=
EXTT8=
EXTT9=
EXTT10=
EXTT11=
EXTT12=
EXTT13=
EXTT14=
EXTT15=
EXTT16=
EXTT17=
EXTT18=
EXTT19=
EXTT20=
EXTT21=
PLAYORDER=
